<svg xmlns="http://www.w3.org/2000/svg" width="24" height="24" viewBox="0 0 24 24" fill="none"><script xmlns=""/>
<path d="M5.42321 12L2.71043 14.7104L0 12L2.71043 9.28957L5.42321 12ZM12 5.41852L16.6448 10.0657L19.3552 7.35522L12 0L4.64478 7.35522L7.35522 10.0657L12 5.41852ZM21.2919 9.28957L18.5815 12L21.2919 14.7104L24 12L21.2919 9.28957ZM12 18.5815L7.35522 13.9367L4.64478 16.6448L12 24L19.3552 16.6448L16.6448 13.9367L12 18.5815ZM12 14.7104L14.7104 12L12 9.28957L9.28957 12L12 14.7104Z" fill="#F0B90B"/>
</svg>