<svg xmlns="http://www.w3.org/2000/svg" width="24" height="24" viewBox="0 0 24 24" fill="none"><script xmlns=""/>
<path d="M11.9998 23.9995C18.627 23.9995 23.9995 18.627 23.9995 11.9998C23.9995 5.37247 18.627 0 11.9998 0C5.37247 0 0 5.37247 0 11.9998C0 18.627 5.37247 23.9995 11.9998 23.9995Z" fill="#172852"/>
<path d="M9.66631 5.36254C11.0712 4.83712 12.6528 4.83566 14.0853 5.26542C15.9486 5.84378 17.5219 7.25009 18.3441 9.01526C18.5708 9.51834 18.7879 10.0428 18.8093 10.6017C17.7618 9.99472 16.6134 9.60089 15.4625 9.24203C13.622 8.5787 11.6947 8.11786 9.95233 7.2059C9.54685 6.96309 9.02968 6.71495 8.91897 6.20992C8.87478 5.77288 9.33658 5.53008 9.6668 5.36012" fill="#FFD83D"/>
<path d="M5.42419 9.61054C5.83113 8.50676 6.49834 7.48165 7.40448 6.72217C7.63466 8.61602 8.44124 10.4482 9.77325 11.8259C11.3704 13.4852 13.6455 14.504 15.9603 14.4656C16.8796 14.4947 17.7784 14.282 18.6748 14.1106C17.7925 17.2976 14.2996 19.4134 11.063 18.9045C9.10943 18.6549 7.3059 17.4962 6.21767 15.8651C4.99006 14.0601 4.67879 11.6637 5.42419 9.61054Z" fill="#FFD83D"/>
<path d="M15.4609 9.24292C16.6118 9.60178 17.7603 9.99561 18.8077 10.6026L18.8786 10.64C18.9757 11.3684 19.0466 12.1158 18.917 12.848C18.3901 12.6247 17.9633 12.2323 17.5165 11.8856C16.6575 11.1703 15.7805 10.352 15.4609 9.24292" fill="#FF6F03"/>
</svg>