<svg xmlns="http://www.w3.org/2000/svg" width="30" height="30" fill="none" viewBox="0 0 30 30"><script xmlns=""/>
    <g clip-path="url(#clip0)">
        <path fill="#555D6D" d="M29.143 7.267c0-1.357-1.104-2.461-2.461-2.461-.697 0-1.326.292-1.774.759L15.303.02c-.181-.105-.405-.105-.586 0L5.114 5.565c-.448-.467-1.077-.759-1.774-.759C1.983 4.806.879 5.91.879 7.267c0 1.155.8 2.126 1.875 2.39v11.085c0 .21.112.403.293.508l9.6 5.543c-.063.218-.098.449-.098.688 0 1.356 1.104 2.46 2.461 2.46 1.357 0 2.46-1.104 2.46-2.46 0-.239-.034-.47-.097-.688l9.602-5.543c.181-.105.293-.299.293-.508V9.657c1.075-.264 1.875-1.235 1.875-2.39zm-27.092 0c0-.711.578-1.29 1.289-1.29.71 0 1.289.579 1.289 1.29 0 .71-.578 1.289-1.29 1.289-.71 0-1.288-.578-1.288-1.289zM15.01 28.77c-.712 0-1.29-.579-1.29-1.29 0-.71.578-1.289 1.29-1.289.71 0 1.288.579 1.288 1.29 0 .71-.578 1.289-1.289 1.289zm1.775-2.99c-.449-.468-1.079-.76-1.776-.76-.697 0-1.327.291-1.775.759l-9.31-5.375V9.657c1.076-.264 1.876-1.235 1.876-2.39 0-.239-.035-.47-.1-.689l9.31-5.374 9.309 5.374c-.064.22-.099.45-.099.689 0 1.155.8 2.126 1.875 2.39v10.747l-9.31 5.375zm9.896-17.224c-.71 0-1.29-.578-1.29-1.289s.58-1.29 1.29-1.29c.71 0 1.289.579 1.289 1.29 0 .71-.578 1.289-1.289 1.289z"/>
        <path fill="#EFB82D" d="M15.179 9.74l2.786 2.786c.1.1.263.1.363 0l1.469-1.469c.1-.1.1-.262 0-.363l-4.618-4.619c-.1-.1-.263-.1-.363 0l-4.617 4.618c-.1.1-.1.262 0 .363l1.469 1.469c.1.1.263.1.363 0l2.785-2.786c.1-.1.262-.1.363 0zM8.544 12.35l-1.469 1.469c-.1.1-.1.262 0 .362l1.47 1.47c.1.1.262.1.362 0l1.47-1.47c.1-.1.1-.262 0-.363l-1.47-1.469c-.1-.1-.262-.1-.363 0zM15.18 21.924l4.62-4.62c.1-.1.1-.263-.001-.363l-1.47-1.468c-.1-.1-.262-.1-.363 0L15.18 18.26c-.1.1-.263.1-.363 0l-2.785-2.786c-.1-.1-.262-.1-.363 0l-1.47 1.467c-.101.1-.101.263 0 .364l4.618 4.62c.1.1.263.1.363 0zM21.09 12.35l-1.469 1.469c-.1.1-.1.263 0 .363l1.47 1.47c.1.1.262.1.362 0l1.47-1.47c.1-.1.1-.263 0-.363l-1.47-1.47c-.1-.1-.263-.1-.363 0z"/>
        <path fill="#EFB82D" d="M16.677 13.819L15.18 12.32c-.1-.1-.263-.1-.363 0L13.32 13.82c-.1.1-.1.262 0 .362l1.497 1.498c.1.1.263.1.363 0l1.497-1.498c.1-.1.1-.262 0-.362z"/>
    </g>
    <defs>
        <clipPath id="clip0">
            <path fill="#fff" d="M0 0H30V30H0z"/>
        </clipPath>
    </defs>
</svg>