<svg xmlns="http://www.w3.org/2000/svg" width="30" height="30" viewBox="0 0 30 30" fill="none"><script xmlns=""/>
<g clip-path="url(#clip0)">
<path d="M29.1429 7.26696C29.1429 5.90992 28.039 4.80602 26.682 4.80602C25.9853 4.80602 25.3556 5.09761 24.9075 5.56453L15.3038 0.0198557C15.1225 -0.0847436 14.8993 -0.0847436 14.7181 0.0198557L5.11415 5.56453C4.666 5.09761 4.03657 4.80602 3.33985 4.80602C1.98281 4.80602 0.878906 5.90992 0.878906 7.26696C0.878906 8.4219 1.67885 9.39305 2.75391 9.65672V20.7422C2.75391 20.9514 2.86561 21.1448 3.04688 21.2496L12.6476 26.7927C12.584 27.0111 12.5492 27.2418 12.5492 27.4805C12.5492 28.8373 13.6531 29.9414 15.0101 29.9414C16.3669 29.9414 17.4708 28.8373 17.4708 27.4805C17.4708 27.242 17.4363 27.0117 17.3726 26.7934L26.9749 21.2496C27.1562 21.145 27.2679 20.9514 27.2679 20.7422V9.65672C28.343 9.39305 29.1429 8.4219 29.1429 7.26696V7.26696ZM2.05078 7.26696C2.05078 6.55605 2.62894 5.9779 3.33985 5.9779C4.05053 5.9779 4.62869 6.55605 4.62869 7.26696C4.62869 7.97764 4.05053 8.55603 3.33985 8.55603C2.62894 8.55603 2.05078 7.97764 2.05078 7.26696ZM15.0101 28.7696C14.2992 28.7696 13.721 28.1914 13.721 27.4805C13.721 26.7698 14.2992 26.1914 15.0101 26.1914C15.7208 26.1914 16.2992 26.7698 16.2992 27.4805C16.2992 28.1914 15.7208 28.7696 15.0101 28.7696ZM16.7858 25.7792C16.3374 25.3116 15.7075 25.0195 15.0101 25.0195C14.3132 25.0195 13.6833 25.3114 13.2351 25.7785L3.92579 20.4039V9.65672C5.00062 9.39305 5.80057 8.4219 5.80057 7.26696C5.80057 7.02801 5.76578 6.79707 5.70192 6.57826L15.0108 1.20386L24.3199 6.57826C24.2561 6.79707 24.2213 7.02778 24.2213 7.26696C24.2213 8.4219 25.0212 9.39305 26.096 9.65672V20.4039L16.7858 25.7792ZM26.682 8.55603C25.9713 8.55603 25.3929 7.97764 25.3929 7.26696C25.3929 6.55605 25.9713 5.9779 26.682 5.9779C27.3929 5.9779 27.971 6.55605 27.971 7.26696C27.971 7.97764 27.3929 8.55603 26.682 8.55603Z" fill="#555D6D"/>
<rect x="7" y="5" width="16" height="16" fill="#D8D8D8" fill-opacity="0.01"/>
<path d="M14.8436 5L14.7363 5.36451V15.9417L14.8436 16.0487L19.7534 13.1466L14.8436 5Z" fill="#343434"/>
<path d="M14.8434 5L9.93359 13.1466L14.8434 16.0488V10.9149V5Z" fill="#8C8C8C"/>
<path d="M14.8427 16.9784L14.7822 17.052V20.8199L14.8427 20.9964L19.7554 14.0776L14.8427 16.9784Z" fill="#343434"/>
<path d="M14.8434 20.9964V16.9784L9.93359 14.0776L14.8434 20.9964Z" fill="#8C8C8C"/>
<path d="M14.8428 16.0488L19.7525 13.1467L14.8428 10.915V16.0488Z" fill="#141414"/>
<path d="M9.93359 13.1467L14.8433 16.0488V10.915L9.93359 13.1467Z" fill="#393939"/>
</g>
<defs>
<clipPath id="clip0">
<rect width="30" height="30" fill="white"/>
</clipPath>
</defs>
</svg>