<svg xmlns="http://www.w3.org/2000/svg" width="30" height="30" fill="none"><script xmlns=""/>
    <g clip-path="url(#a)">
        <path d="M29.143 7.267a2.464 2.464 0 0 0-2.461-2.461c-.697 0-1.326.292-1.774.759L15.303.02a.586.586 0 0 0-.586 0L5.114 5.565a2.453 2.453 0 0 0-1.774-.759A2.464 2.464 0 0 0 .879 7.267c0 1.155.8 2.126 1.875 2.39v11.085c0 .21.112.403.293.508l9.6 5.543a2.464 2.464 0 0 0 2.362 3.149 2.464 2.464 0 0 0 2.364-3.149l9.602-5.543a.586.586 0 0 0 .293-.508V9.657a2.465 2.465 0 0 0 1.875-2.39zm-27.092 0c0-.711.578-1.29 1.289-1.29a1.29 1.29 0 0 1 0 2.578 1.29 1.29 0 0 1-1.29-1.288zM15.01 28.77a1.29 1.29 0 0 1-1.29-1.29 1.29 1.29 0 0 1 2.578 0c0 .711-.578 1.29-1.289 1.29zm1.775-2.99a2.454 2.454 0 0 0-3.55-.002l-9.31-5.374V9.657a2.465 2.465 0 0 0 1.776-3.079l9.309-5.374 9.309 5.374a2.465 2.465 0 0 0 1.776 3.078v10.748l-9.31 5.375zm9.896-17.224a1.29 1.29 0 0 1-1.29-1.289 1.29 1.29 0 0 1 2.578 0c.001.71-.577 1.289-1.288 1.289z" fill="#555D6D"/>
        <path fill-rule="evenodd" clip-rule="evenodd" d="M10.83 9.097a1 1 0 0 1 1 0l1.63.941a1 1 0 0 1 .5.866V12.131l1.7-.981V9.923a1 1 0 0 0-.5-.866l-3.33-1.923a1 1 0 0 0-1 0L7.5 9.057a1 1 0 0 0-.5.866v3.845a1 1 0 0 0 .5.866l3.33 1.923a1 1 0 0 0 1 0L14 15.304v.005l1.7-.982 2.13-1.23a1 1 0 0 1 1 0l1.63.941a1 1 0 0 1 .5.866v1.883a1 1 0 0 1-.5.866l-1.63.94a1 1 0 0 1-1 0l-1.63-.94a1 1 0 0 1-.5-.866v-1.224l-1.7.981v1.224a1 1 0 0 0 .5.866l3.33 1.923a1 1 0 0 0 1 0l3.33-1.923a1 1 0 0 0 .5-.866v-3.845a1 1 0 0 0-.5-.866l-3.33-1.923a1 1 0 0 0-1 0l-2.17 1.253v-.002l-1.795 1.037-.001-.003-2.034 1.175a1 1 0 0 1-1 0l-1.63-.941a1 1 0 0 1-.5-.867v-1.882a1 1 0 0 1 .5-.866l1.63-.941z" fill="#8247E5"/>
    </g>
    <defs>
        <clipPath id="a">
            <path fill="#fff" d="M0 0h30v30H0z"/>
        </clipPath>
    </defs>
</svg>