<svg xmlns="http://www.w3.org/2000/svg" width="16" height="16" fill="none" viewBox="0 0 16 16">
    <path fill="#6C7486" fill-rule="evenodd" d="M0 8c0 4.416 3.584 8 8 8s8-3.584 8-8-3.584-8-8-8-8 3.584-8 8zm5.075-3.86c-.261-.204-.64-.185-.88.055-.26.26-.26.683 0 .943L7.057 8l-2.862 2.862-.055.063c-.204.261-.185.64.055.88.26.26.683.26.943 0L8 8.943l2.862 2.862.063.055c.261.204.64.185.88-.055.26-.26.26-.683 0-.943L8.943 8l2.862-2.862.055-.063c.204-.261.185-.64-.055-.88-.26-.26-.683-.26-.943 0L8 7.057 5.138 4.195l-.063-.055z" clip-rule="evenodd"/>
</svg>
